<svg id="light" style = "fill:#cdcdcd" enable-background="new 0 0 24 24" height="512" viewBox="0 0 24 24" width="512" xmlns="http://www.w3.org/2000/svg"><path d="m22.5 21h-21c-.827 0-1.5-.673-1.5-1.5v-14c0-.827.673-1.5 1.5-1.5h5c.276 0 .5.224.5.5s-.224.5-.5.5h-5c-.276 0-.5.224-.5.5v14c0 .276.224.5.5.5h21c.276 0 .5-.224.5-.5v-14c0-.276-.224-.5-.5-.5s-.5-.224-.5-.5.224-.5.5-.5c.827 0 1.5.673 1.5 1.5v14c0 .827-.673 1.5-1.5 1.5z"/><path d="m15.5 24h-7c-.202 0-.385-.122-.462-.309-.078-.187-.035-.402.108-.545 1.316-1.316 1.333-2.59 1.333-2.644.001-.275.225-.502.501-.502h4.02c.275 0 .499.222.5.497.001.063.04 1.336 1.354 2.649.143.143.186.358.108.545-.077.187-.26.309-.462.309zm-5.929-1h4.857c-.56-.801-.782-1.537-.87-2h-3.13c-.085.465-.301 1.2-.857 2zm4.929-2.5h.01z"/><path d="m23.5 18h-23c-.276 0-.5-.224-.5-.5s.224-.5.5-.5h23c.276 0 .5.224.5.5s-.224.5-.5.5z"/><path d="m12 14c-2.757 0-5-2.243-5-5s2.243-5 5-5c.565 0 1.106.091 1.608.269.26.093.396.379.303.639-.093.259-.378.393-.639.303-.394-.14-.821-.211-1.272-.211-2.206 0-4 1.794-4 4s1.794 4 4 4 4-1.794 4-4c0-.451-.071-.878-.211-1.272-.092-.26.043-.546.303-.639.26-.091.545.043.639.303.178.502.269 1.043.269 1.608 0 2.757-2.243 5-5 5z"/><path d="m12 11c-1.103 0-2-.897-2-2 0-.533.208-1.036.586-1.414.195-.195.512-.195.707 0s.195.512 0 .707c-.189.19-.293.441-.293.707 0 .551.449 1 1 1 .266 0 .517-.104.707-.293.195-.195.512-.195.707 0s.195.512 0 .707c-.378.378-.881.586-1.414.586z"/><path d="m12 9.5c-.128 0-.256-.049-.354-.146-.195-.195-.195-.512 0-.707l3.5-3.5c.195-.195.512-.195.707 0s.195.512 0 .707l-3.5 3.5c-.097.097-.225.146-.353.146z"/><path d="m18 6h-2.5c-.276 0-.5-.224-.5-.5v-2.5c0-.133.053-.26.146-.354l2.5-2.5c.144-.143.359-.186.545-.108.187.077.309.26.309.462v2h2c.202 0 .385.122.462.309.078.187.035.402-.108.545l-2.5 2.5c-.094.093-.221.146-.354.146zm-2-1h1.793l1.5-1.5h-1.293c-.276 0-.5-.224-.5-.5v-1.293l-1.5 1.5z"/></svg>
